# xmcd
#
# Track frame offsets: 
#        150
#        20325
#        36112
#        50875
#        66212
#        81262
#        93537
#        114100
#        126125
#        138487
#        153150
#        169450
#
# Disc length: 2480 seconds
#
# Revision: 1
# Processed by: cddbd v1.5.2PL0 Copyright (c) Steve Scherf et al.
# Submitted via: ExactAudioCopy v1.0b1
#
DISCID=a009ae0c
DTITLE=vari - Le grandi voci del passato
DYEAR=1900
DGENRE=Napoletana
TTITLE0=I' m'arricordo 'e Napule - Enrico Caruso
TTITLE1=Era de maggio - Tito Schipa
TTITLE2=Torna a Surrento - Beniamino Gigli
TTITLE3='A canzone d''e stelle - Tito Schipa
TTITLE4=Maria Mari' - Francesco Albanesa
TTITLE5=Tu ca non chiagne - Ferruccio Tagliavini
TTITLE6=core' 'ngrato - Enrico Caruso
TTITLE7=Lucia Luci' - Beniamino Gigli
TTITLE8=Mandulinate e sera- Tito Schipa
TTITLE9='A canzone 'e Napule - Beniamino Gigli
TTITLE10=Torna! - Tito Schipa
TTITLE11=Dicitancello vuie- Ferruccio Tagliavini
EXTD=
EXTT0=
EXTT1=
EXTT2=
EXTT3=
EXTT4=
EXTT5=
EXTT6=
EXTT7=
EXTT8=
EXTT9=
EXTT10=
EXTT11=
PLAYORDER=
